<mxfile host="Electron" modified="2024-04-11T21:50:49.661Z" agent="Mozilla/5.0 (Windows NT 10.0; Win64; x64) AppleWebKit/537.36 (KHTML, like Gecko) draw.io/24.1.0 Chrome/120.0.6099.109 Electron/28.1.0 Safari/537.36" etag="7OaKKOxfg8w81vacK2Hu" version="24.1.0" type="device">
  <diagram name="Seite-1" id="PAceDOMzr4RV0H8RqxF8">
    <mxGraphModel dx="1434" dy="964" grid="1" gridSize="10" guides="1" tooltips="1" connect="1" arrows="1" fold="1" page="1" pageScale="1" pageWidth="1169" pageHeight="827" math="0" shadow="0">
      <root>
        <mxCell id="0" />
        <mxCell id="1" parent="0" />
        <mxCell id="lLSh_5JbdZohcwKLrEKR-1" value="Herr Müller : Kunde" style="rounded=0;whiteSpace=wrap;html=1;" vertex="1" parent="1">
          <mxGeometry x="10" y="40" width="160" height="60" as="geometry" />
        </mxCell>
        <mxCell id="lLSh_5JbdZohcwKLrEKR-2" value=": Mitarbeiter" style="rounded=0;whiteSpace=wrap;html=1;" vertex="1" parent="1">
          <mxGeometry x="190" y="40" width="160" height="60" as="geometry" />
        </mxCell>
        <mxCell id="lLSh_5JbdZohcwKLrEKR-3" value="" style="shape=umlActor;verticalLabelPosition=bottom;verticalAlign=top;html=1;outlineConnect=0;" vertex="1" parent="1">
          <mxGeometry x="140" y="50" width="20" height="40" as="geometry" />
        </mxCell>
        <mxCell id="lLSh_5JbdZohcwKLrEKR-6" value="" style="shape=umlActor;verticalLabelPosition=bottom;verticalAlign=top;html=1;outlineConnect=0;" vertex="1" parent="1">
          <mxGeometry x="320" y="49" width="20" height="40" as="geometry" />
        </mxCell>
        <mxCell id="lLSh_5JbdZohcwKLrEKR-7" value=": KaufOberfläche" style="rounded=0;whiteSpace=wrap;html=1;" vertex="1" parent="1">
          <mxGeometry x="370" y="40" width="160" height="60" as="geometry" />
        </mxCell>
        <mxCell id="lLSh_5JbdZohcwKLrEKR-8" value=": BezahlEinheit" style="rounded=0;whiteSpace=wrap;html=1;" vertex="1" parent="1">
          <mxGeometry x="820" y="40" width="160" height="60" as="geometry" />
        </mxCell>
        <mxCell id="lLSh_5JbdZohcwKLrEKR-9" value=": StatistikModul" style="rounded=0;whiteSpace=wrap;html=1;" vertex="1" parent="1">
          <mxGeometry x="1000" y="40" width="160" height="60" as="geometry" />
        </mxCell>
        <mxCell id="lLSh_5JbdZohcwKLrEKR-11" value="" style="endArrow=none;dashed=1;html=1;dashPattern=1 3;strokeWidth=2;rounded=0;entryX=0.5;entryY=1;entryDx=0;entryDy=0;" edge="1" parent="1" source="lLSh_5JbdZohcwKLrEKR-138" target="lLSh_5JbdZohcwKLrEKR-1">
          <mxGeometry width="50" height="50" relative="1" as="geometry">
            <mxPoint x="90" y="1120" as="sourcePoint" />
            <mxPoint x="90" y="100" as="targetPoint" />
          </mxGeometry>
        </mxCell>
        <mxCell id="lLSh_5JbdZohcwKLrEKR-13" value="" style="endArrow=none;dashed=1;html=1;dashPattern=1 3;strokeWidth=2;rounded=0;entryX=0.463;entryY=0.967;entryDx=0;entryDy=0;entryPerimeter=0;" edge="1" parent="1" source="lLSh_5JbdZohcwKLrEKR-140" target="lLSh_5JbdZohcwKLrEKR-2">
          <mxGeometry width="50" height="50" relative="1" as="geometry">
            <mxPoint x="270" y="1120" as="sourcePoint" />
            <mxPoint x="269.5" y="99" as="targetPoint" />
          </mxGeometry>
        </mxCell>
        <mxCell id="lLSh_5JbdZohcwKLrEKR-14" value="" style="endArrow=none;dashed=1;html=1;dashPattern=1 3;strokeWidth=2;rounded=0;entryX=0.5;entryY=1;entryDx=0;entryDy=0;" edge="1" parent="1" source="lLSh_5JbdZohcwKLrEKR-128" target="lLSh_5JbdZohcwKLrEKR-7">
          <mxGeometry width="50" height="50" relative="1" as="geometry">
            <mxPoint x="450" y="1120" as="sourcePoint" />
            <mxPoint x="449.5" y="99" as="targetPoint" />
          </mxGeometry>
        </mxCell>
        <mxCell id="lLSh_5JbdZohcwKLrEKR-15" value="" style="endArrow=none;dashed=1;html=1;dashPattern=1 3;strokeWidth=2;rounded=0;entryX=0.5;entryY=1;entryDx=0;entryDy=0;" edge="1" parent="1" source="lLSh_5JbdZohcwKLrEKR-134" target="lLSh_5JbdZohcwKLrEKR-8">
          <mxGeometry width="50" height="50" relative="1" as="geometry">
            <mxPoint x="900" y="1120" as="sourcePoint" />
            <mxPoint x="910" y="100" as="targetPoint" />
          </mxGeometry>
        </mxCell>
        <mxCell id="lLSh_5JbdZohcwKLrEKR-16" value="" style="endArrow=none;dashed=1;html=1;dashPattern=1 3;strokeWidth=2;rounded=0;" edge="1" parent="1" source="lLSh_5JbdZohcwKLrEKR-136">
          <mxGeometry width="50" height="50" relative="1" as="geometry">
            <mxPoint x="1080" y="1120" as="sourcePoint" />
            <mxPoint x="1080" y="100" as="targetPoint" />
          </mxGeometry>
        </mxCell>
        <mxCell id="lLSh_5JbdZohcwKLrEKR-17" value="" style="endArrow=classic;html=1;rounded=0;" edge="1" parent="1" target="lLSh_5JbdZohcwKLrEKR-140">
          <mxGeometry width="50" height="50" relative="1" as="geometry">
            <mxPoint x="90" y="140" as="sourcePoint" />
            <mxPoint x="270" y="140" as="targetPoint" />
          </mxGeometry>
        </mxCell>
        <mxCell id="lLSh_5JbdZohcwKLrEKR-18" value="möchte Ticket kaufen" style="edgeLabel;html=1;align=center;verticalAlign=middle;resizable=0;points=[];" vertex="1" connectable="0" parent="lLSh_5JbdZohcwKLrEKR-17">
          <mxGeometry x="0.01" y="1" relative="1" as="geometry">
            <mxPoint as="offset" />
          </mxGeometry>
        </mxCell>
        <mxCell id="lLSh_5JbdZohcwKLrEKR-19" value="" style="endArrow=classic;html=1;rounded=0;" edge="1" parent="1">
          <mxGeometry width="50" height="50" relative="1" as="geometry">
            <mxPoint x="270" y="159.5" as="sourcePoint" />
            <mxPoint x="450" y="159.5" as="targetPoint" />
          </mxGeometry>
        </mxCell>
        <mxCell id="lLSh_5JbdZohcwKLrEKR-20" value="öffneOberfläche()" style="edgeLabel;html=1;align=center;verticalAlign=middle;resizable=0;points=[];" vertex="1" connectable="0" parent="lLSh_5JbdZohcwKLrEKR-19">
          <mxGeometry x="0.0333" y="1" relative="1" as="geometry">
            <mxPoint x="-20" as="offset" />
          </mxGeometry>
        </mxCell>
        <mxCell id="lLSh_5JbdZohcwKLrEKR-23" value=": Kinoprogramm" style="rounded=0;whiteSpace=wrap;html=1;" vertex="1" parent="1">
          <mxGeometry x="640" y="39" width="160" height="60" as="geometry" />
        </mxCell>
        <mxCell id="lLSh_5JbdZohcwKLrEKR-27" value="" style="endArrow=none;dashed=1;html=1;dashPattern=1 3;strokeWidth=2;rounded=0;entryX=0.5;entryY=1;entryDx=0;entryDy=0;" edge="1" parent="1" source="lLSh_5JbdZohcwKLrEKR-130" target="lLSh_5JbdZohcwKLrEKR-23">
          <mxGeometry width="50" height="50" relative="1" as="geometry">
            <mxPoint x="720" y="1120" as="sourcePoint" />
            <mxPoint x="715" y="99" as="targetPoint" />
          </mxGeometry>
        </mxCell>
        <mxCell id="lLSh_5JbdZohcwKLrEKR-33" value="v24 : BestellVorgang" style="rounded=0;whiteSpace=wrap;html=1;" vertex="1" parent="1">
          <mxGeometry x="550" y="160" width="120" height="40" as="geometry" />
        </mxCell>
        <mxCell id="lLSh_5JbdZohcwKLrEKR-37" value="erstelle&lt;div&gt;BestellVorgang()&lt;/div&gt;" style="endArrow=open;endSize=12;dashed=1;html=1;rounded=0;entryX=0;entryY=0.5;entryDx=0;entryDy=0;" edge="1" parent="1" target="lLSh_5JbdZohcwKLrEKR-33">
          <mxGeometry width="160" relative="1" as="geometry">
            <mxPoint x="450" y="179.5" as="sourcePoint" />
            <mxPoint x="540" y="180" as="targetPoint" />
            <mxPoint as="offset" />
          </mxGeometry>
        </mxCell>
        <mxCell id="lLSh_5JbdZohcwKLrEKR-40" value="" style="html=1;points=[[0,0,0,0,5],[0,1,0,0,-5],[1,0,0,0,5],[1,1,0,0,-5]];perimeter=orthogonalPerimeter;outlineConnect=0;targetShapes=umlLifeline;portConstraint=eastwest;newEdgeStyle={&quot;curved&quot;:0,&quot;rounded&quot;:0};" vertex="1" parent="1">
          <mxGeometry x="550" y="230" width="10" height="700" as="geometry" />
        </mxCell>
        <mxCell id="lLSh_5JbdZohcwKLrEKR-42" value="" style="endArrow=none;dashed=1;html=1;dashPattern=1 3;strokeWidth=2;rounded=0;exitX=0;exitY=0;exitDx=0;exitDy=5;exitPerimeter=0;entryX=0;entryY=1;entryDx=0;entryDy=0;" edge="1" parent="1" source="lLSh_5JbdZohcwKLrEKR-40" target="lLSh_5JbdZohcwKLrEKR-33">
          <mxGeometry width="50" height="50" relative="1" as="geometry">
            <mxPoint x="560" y="420" as="sourcePoint" />
            <mxPoint x="610" y="210" as="targetPoint" />
          </mxGeometry>
        </mxCell>
        <mxCell id="lLSh_5JbdZohcwKLrEKR-48" value="" style="html=1;verticalAlign=bottom;endArrow=open;dashed=1;endSize=8;curved=0;rounded=0;" edge="1" parent="1" target="lLSh_5JbdZohcwKLrEKR-128">
          <mxGeometry relative="1" as="geometry">
            <mxPoint x="720" y="400" as="sourcePoint" />
            <mxPoint x="450" y="400" as="targetPoint" />
          </mxGeometry>
        </mxCell>
        <mxCell id="lLSh_5JbdZohcwKLrEKR-49" value="ticketAnzeigen()" style="edgeLabel;html=1;align=center;verticalAlign=middle;resizable=0;points=[];" vertex="1" connectable="0" parent="lLSh_5JbdZohcwKLrEKR-48">
          <mxGeometry x="-0.0444" y="-3" relative="1" as="geometry">
            <mxPoint as="offset" />
          </mxGeometry>
        </mxCell>
        <mxCell id="lLSh_5JbdZohcwKLrEKR-50" value="" style="html=1;verticalAlign=bottom;endArrow=open;dashed=1;endSize=8;curved=0;rounded=0;" edge="1" parent="1" target="lLSh_5JbdZohcwKLrEKR-140">
          <mxGeometry relative="1" as="geometry">
            <mxPoint x="450" y="413.5" as="sourcePoint" />
            <mxPoint x="260" y="413" as="targetPoint" />
          </mxGeometry>
        </mxCell>
        <mxCell id="lLSh_5JbdZohcwKLrEKR-52" value="" style="html=1;verticalAlign=bottom;endArrow=open;dashed=1;endSize=8;curved=0;rounded=0;" edge="1" parent="1" target="lLSh_5JbdZohcwKLrEKR-138">
          <mxGeometry relative="1" as="geometry">
            <mxPoint x="260" y="430" as="sourcePoint" />
            <mxPoint x="90" y="430" as="targetPoint" />
          </mxGeometry>
        </mxCell>
        <mxCell id="lLSh_5JbdZohcwKLrEKR-54" value="" style="endArrow=classic;html=1;rounded=0;" edge="1" parent="1" target="lLSh_5JbdZohcwKLrEKR-140">
          <mxGeometry width="50" height="50" relative="1" as="geometry">
            <mxPoint x="90" y="450" as="sourcePoint" />
            <mxPoint x="270" y="450" as="targetPoint" />
          </mxGeometry>
        </mxCell>
        <mxCell id="lLSh_5JbdZohcwKLrEKR-55" value="möchte Snacks kaufen" style="edgeLabel;html=1;align=center;verticalAlign=middle;resizable=0;points=[];" vertex="1" connectable="0" parent="lLSh_5JbdZohcwKLrEKR-54">
          <mxGeometry x="0.2111" y="-2" relative="1" as="geometry">
            <mxPoint x="-19" as="offset" />
          </mxGeometry>
        </mxCell>
        <mxCell id="lLSh_5JbdZohcwKLrEKR-56" value="" style="endArrow=classic;html=1;rounded=0;" edge="1" parent="1" target="lLSh_5JbdZohcwKLrEKR-128">
          <mxGeometry width="50" height="50" relative="1" as="geometry">
            <mxPoint x="270" y="464" as="sourcePoint" />
            <mxPoint x="450" y="464" as="targetPoint" />
          </mxGeometry>
        </mxCell>
        <mxCell id="lLSh_5JbdZohcwKLrEKR-58" value="snacksHinzufügen()" style="edgeLabel;html=1;align=center;verticalAlign=middle;resizable=0;points=[];" vertex="1" connectable="0" parent="lLSh_5JbdZohcwKLrEKR-56">
          <mxGeometry x="-0.0556" y="-1" relative="1" as="geometry">
            <mxPoint as="offset" />
          </mxGeometry>
        </mxCell>
        <mxCell id="lLSh_5JbdZohcwKLrEKR-59" value="" style="endArrow=classic;html=1;rounded=0;" edge="1" parent="1" target="lLSh_5JbdZohcwKLrEKR-128">
          <mxGeometry width="50" height="50" relative="1" as="geometry">
            <mxPoint x="450" y="490" as="sourcePoint" />
            <mxPoint x="450" y="520" as="targetPoint" />
            <Array as="points">
              <mxPoint x="520" y="490" />
              <mxPoint x="520" y="520" />
            </Array>
          </mxGeometry>
        </mxCell>
        <mxCell id="lLSh_5JbdZohcwKLrEKR-60" value="prüfeLagerbestand()" style="edgeLabel;html=1;align=center;verticalAlign=middle;resizable=0;points=[];" vertex="1" connectable="0" parent="lLSh_5JbdZohcwKLrEKR-59">
          <mxGeometry x="0.0824" y="3" relative="1" as="geometry">
            <mxPoint y="-12" as="offset" />
          </mxGeometry>
        </mxCell>
        <mxCell id="lLSh_5JbdZohcwKLrEKR-61" value="" style="endArrow=classic;html=1;rounded=0;" edge="1" parent="1" target="lLSh_5JbdZohcwKLrEKR-128">
          <mxGeometry width="50" height="50" relative="1" as="geometry">
            <mxPoint x="450" y="540" as="sourcePoint" />
            <mxPoint x="450" y="570" as="targetPoint" />
            <Array as="points">
              <mxPoint x="520" y="540" />
              <mxPoint x="520" y="570" />
            </Array>
          </mxGeometry>
        </mxCell>
        <mxCell id="lLSh_5JbdZohcwKLrEKR-62" value="snacksAnzeigen()" style="edgeLabel;html=1;align=center;verticalAlign=middle;resizable=0;points=[];" vertex="1" connectable="0" parent="lLSh_5JbdZohcwKLrEKR-61">
          <mxGeometry x="-0.0353" y="-3" relative="1" as="geometry">
            <mxPoint as="offset" />
          </mxGeometry>
        </mxCell>
        <mxCell id="lLSh_5JbdZohcwKLrEKR-65" value="" style="html=1;verticalAlign=bottom;endArrow=open;dashed=1;endSize=8;curved=0;rounded=0;" edge="1" parent="1">
          <mxGeometry relative="1" as="geometry">
            <mxPoint x="450" y="600" as="sourcePoint" />
            <mxPoint x="270" y="600" as="targetPoint" />
          </mxGeometry>
        </mxCell>
        <mxCell id="lLSh_5JbdZohcwKLrEKR-66" value="" style="html=1;verticalAlign=bottom;endArrow=open;dashed=1;endSize=8;curved=0;rounded=0;" edge="1" parent="1" target="lLSh_5JbdZohcwKLrEKR-138">
          <mxGeometry relative="1" as="geometry">
            <mxPoint x="270" y="620" as="sourcePoint" />
            <mxPoint x="90" y="620" as="targetPoint" />
          </mxGeometry>
        </mxCell>
        <mxCell id="lLSh_5JbdZohcwKLrEKR-67" value="" style="endArrow=classic;html=1;rounded=0;" edge="1" parent="1" target="lLSh_5JbdZohcwKLrEKR-140">
          <mxGeometry width="50" height="50" relative="1" as="geometry">
            <mxPoint x="90" y="670" as="sourcePoint" />
            <mxPoint x="270" y="670" as="targetPoint" />
          </mxGeometry>
        </mxCell>
        <mxCell id="lLSh_5JbdZohcwKLrEKR-69" value="möchte bezahlen" style="edgeLabel;html=1;align=center;verticalAlign=middle;resizable=0;points=[];" vertex="1" connectable="0" parent="lLSh_5JbdZohcwKLrEKR-67">
          <mxGeometry x="-0.1444" y="1" relative="1" as="geometry">
            <mxPoint x="3" as="offset" />
          </mxGeometry>
        </mxCell>
        <mxCell id="lLSh_5JbdZohcwKLrEKR-73" value="" style="endArrow=classic;html=1;rounded=0;" edge="1" parent="1" target="lLSh_5JbdZohcwKLrEKR-128">
          <mxGeometry width="50" height="50" relative="1" as="geometry">
            <mxPoint x="270" y="690" as="sourcePoint" />
            <mxPoint x="440" y="690" as="targetPoint" />
          </mxGeometry>
        </mxCell>
        <mxCell id="lLSh_5JbdZohcwKLrEKR-75" value="drücktBezahlButton()" style="edgeLabel;html=1;align=center;verticalAlign=middle;resizable=0;points=[];" vertex="1" connectable="0" parent="lLSh_5JbdZohcwKLrEKR-73">
          <mxGeometry x="0.1111" y="-1" relative="1" as="geometry">
            <mxPoint as="offset" />
          </mxGeometry>
        </mxCell>
        <mxCell id="lLSh_5JbdZohcwKLrEKR-82" value="" style="html=1;verticalAlign=bottom;endArrow=open;dashed=1;endSize=8;curved=0;rounded=0;" edge="1" parent="1">
          <mxGeometry relative="1" as="geometry">
            <mxPoint x="450" y="810" as="sourcePoint" />
            <mxPoint x="270" y="810" as="targetPoint" />
          </mxGeometry>
        </mxCell>
        <mxCell id="lLSh_5JbdZohcwKLrEKR-83" value="" style="html=1;verticalAlign=bottom;endArrow=open;dashed=1;endSize=8;curved=0;rounded=0;" edge="1" parent="1" target="lLSh_5JbdZohcwKLrEKR-138">
          <mxGeometry relative="1" as="geometry">
            <mxPoint x="270" y="827" as="sourcePoint" />
            <mxPoint x="90" y="827" as="targetPoint" />
          </mxGeometry>
        </mxCell>
        <mxCell id="lLSh_5JbdZohcwKLrEKR-86" value="" style="endArrow=classic;html=1;rounded=0;" edge="1" parent="1" target="lLSh_5JbdZohcwKLrEKR-140">
          <mxGeometry width="50" height="50" relative="1" as="geometry">
            <mxPoint x="90" y="870" as="sourcePoint" />
            <mxPoint x="270" y="870" as="targetPoint" />
          </mxGeometry>
        </mxCell>
        <mxCell id="lLSh_5JbdZohcwKLrEKR-87" value="bezahlt" style="edgeLabel;html=1;align=center;verticalAlign=middle;resizable=0;points=[];" vertex="1" connectable="0" parent="lLSh_5JbdZohcwKLrEKR-86">
          <mxGeometry x="0.1889" y="3" relative="1" as="geometry">
            <mxPoint x="-27" y="3" as="offset" />
          </mxGeometry>
        </mxCell>
        <mxCell id="lLSh_5JbdZohcwKLrEKR-88" value="" style="endArrow=classic;html=1;rounded=0;" edge="1" parent="1" target="lLSh_5JbdZohcwKLrEKR-128">
          <mxGeometry width="50" height="50" relative="1" as="geometry">
            <mxPoint x="270" y="900" as="sourcePoint" />
            <mxPoint x="440" y="900" as="targetPoint" />
          </mxGeometry>
        </mxCell>
        <mxCell id="lLSh_5JbdZohcwKLrEKR-89" value="bestätigtZahlvorgang()" style="edgeLabel;html=1;align=center;verticalAlign=middle;resizable=0;points=[];" vertex="1" connectable="0" parent="lLSh_5JbdZohcwKLrEKR-88">
          <mxGeometry x="0.2556" y="-2" relative="1" as="geometry">
            <mxPoint x="-23" as="offset" />
          </mxGeometry>
        </mxCell>
        <mxCell id="lLSh_5JbdZohcwKLrEKR-91" value="t37 : Ticket" style="rounded=0;whiteSpace=wrap;html=1;" vertex="1" parent="1">
          <mxGeometry x="640" y="230" width="60" height="40" as="geometry" />
        </mxCell>
        <mxCell id="lLSh_5JbdZohcwKLrEKR-92" value="erstelleTicket()" style="endArrow=open;endSize=12;dashed=1;html=1;rounded=0;" edge="1" parent="1" source="lLSh_5JbdZohcwKLrEKR-40">
          <mxGeometry width="160" relative="1" as="geometry">
            <mxPoint x="560" y="249.5" as="sourcePoint" />
            <mxPoint x="640" y="250" as="targetPoint" />
          </mxGeometry>
        </mxCell>
        <mxCell id="lLSh_5JbdZohcwKLrEKR-93" value="" style="html=1;points=[[0,0,0,0,5],[0,1,0,0,-5],[1,0,0,0,5],[1,1,0,0,-5]];perimeter=orthogonalPerimeter;outlineConnect=0;targetShapes=umlLifeline;portConstraint=eastwest;newEdgeStyle={&quot;curved&quot;:0,&quot;rounded&quot;:0};" vertex="1" parent="1">
          <mxGeometry x="640" y="300" width="10" height="630" as="geometry" />
        </mxCell>
        <mxCell id="lLSh_5JbdZohcwKLrEKR-94" value="" style="endArrow=none;dashed=1;html=1;dashPattern=1 3;strokeWidth=2;rounded=0;entryX=0;entryY=1;entryDx=0;entryDy=0;" edge="1" parent="1" source="lLSh_5JbdZohcwKLrEKR-93" target="lLSh_5JbdZohcwKLrEKR-91">
          <mxGeometry width="50" height="50" relative="1" as="geometry">
            <mxPoint x="560" y="245" as="sourcePoint" />
            <mxPoint x="560" y="210" as="targetPoint" />
          </mxGeometry>
        </mxCell>
        <mxCell id="lLSh_5JbdZohcwKLrEKR-105" value="" style="endArrow=open;endFill=1;endSize=12;html=1;rounded=0;" edge="1" parent="1">
          <mxGeometry width="160" relative="1" as="geometry">
            <mxPoint x="450" y="950" as="sourcePoint" />
            <mxPoint x="550" y="950" as="targetPoint" />
          </mxGeometry>
        </mxCell>
        <mxCell id="lLSh_5JbdZohcwKLrEKR-106" value="lösche&lt;div&gt;BestellVorgang()&lt;/div&gt;" style="edgeLabel;html=1;align=center;verticalAlign=middle;resizable=0;points=[];" vertex="1" connectable="0" parent="lLSh_5JbdZohcwKLrEKR-105">
          <mxGeometry x="0.06" y="3" relative="1" as="geometry">
            <mxPoint x="-3" y="23" as="offset" />
          </mxGeometry>
        </mxCell>
        <mxCell id="lLSh_5JbdZohcwKLrEKR-108" value="" style="endArrow=none;dashed=1;html=1;dashPattern=1 3;strokeWidth=2;rounded=0;" edge="1" parent="1" source="lLSh_5JbdZohcwKLrEKR-115">
          <mxGeometry width="50" height="50" relative="1" as="geometry">
            <mxPoint x="560" y="820" as="sourcePoint" />
            <mxPoint x="555" y="970" as="targetPoint" />
          </mxGeometry>
        </mxCell>
        <mxCell id="lLSh_5JbdZohcwKLrEKR-109" value="" style="endArrow=none;dashed=1;html=1;dashPattern=1 3;strokeWidth=2;rounded=0;entryX=0;entryY=1;entryDx=0;entryDy=-5;entryPerimeter=0;" edge="1" parent="1" source="lLSh_5JbdZohcwKLrEKR-119" target="lLSh_5JbdZohcwKLrEKR-93">
          <mxGeometry width="50" height="50" relative="1" as="geometry">
            <mxPoint x="640" y="970" as="sourcePoint" />
            <mxPoint x="650" y="930" as="targetPoint" />
          </mxGeometry>
        </mxCell>
        <mxCell id="lLSh_5JbdZohcwKLrEKR-110" value="" style="endArrow=open;endFill=1;endSize=12;html=1;rounded=0;" edge="1" parent="1" source="lLSh_5JbdZohcwKLrEKR-115">
          <mxGeometry width="160" relative="1" as="geometry">
            <mxPoint x="560" y="950" as="sourcePoint" />
            <mxPoint x="640" y="950" as="targetPoint" />
          </mxGeometry>
        </mxCell>
        <mxCell id="lLSh_5JbdZohcwKLrEKR-111" value="lösche&lt;div&gt;Ticket()&lt;/div&gt;" style="edgeLabel;html=1;align=center;verticalAlign=middle;resizable=0;points=[];" vertex="1" connectable="0" parent="lLSh_5JbdZohcwKLrEKR-110">
          <mxGeometry x="0.06" y="3" relative="1" as="geometry">
            <mxPoint x="-12" y="3" as="offset" />
          </mxGeometry>
        </mxCell>
        <mxCell id="lLSh_5JbdZohcwKLrEKR-116" value="" style="endArrow=open;endFill=1;endSize=12;html=1;rounded=0;" edge="1" parent="1" target="lLSh_5JbdZohcwKLrEKR-115">
          <mxGeometry width="160" relative="1" as="geometry">
            <mxPoint x="560" y="950" as="sourcePoint" />
            <mxPoint x="640" y="950" as="targetPoint" />
          </mxGeometry>
        </mxCell>
        <mxCell id="lLSh_5JbdZohcwKLrEKR-118" value="" style="endArrow=none;dashed=1;html=1;dashPattern=1 3;strokeWidth=2;rounded=0;" edge="1" parent="1" source="lLSh_5JbdZohcwKLrEKR-40" target="lLSh_5JbdZohcwKLrEKR-115">
          <mxGeometry width="50" height="50" relative="1" as="geometry">
            <mxPoint x="555" y="930" as="sourcePoint" />
            <mxPoint x="555" y="970" as="targetPoint" />
          </mxGeometry>
        </mxCell>
        <mxCell id="lLSh_5JbdZohcwKLrEKR-115" value="" style="shape=umlDestroy;whiteSpace=wrap;html=1;strokeWidth=3;targetShapes=umlLifeline;" vertex="1" parent="1">
          <mxGeometry x="545" y="940" width="20" height="20" as="geometry" />
        </mxCell>
        <mxCell id="lLSh_5JbdZohcwKLrEKR-120" value="" style="endArrow=none;dashed=1;html=1;dashPattern=1 3;strokeWidth=2;rounded=0;entryX=0;entryY=1;entryDx=0;entryDy=-5;entryPerimeter=0;" edge="1" parent="1" target="lLSh_5JbdZohcwKLrEKR-119">
          <mxGeometry width="50" height="50" relative="1" as="geometry">
            <mxPoint x="640" y="970" as="sourcePoint" />
            <mxPoint x="640" y="925" as="targetPoint" />
          </mxGeometry>
        </mxCell>
        <mxCell id="lLSh_5JbdZohcwKLrEKR-119" value="" style="shape=umlDestroy;whiteSpace=wrap;html=1;strokeWidth=3;targetShapes=umlLifeline;" vertex="1" parent="1">
          <mxGeometry x="630" y="940" width="20" height="20" as="geometry" />
        </mxCell>
        <mxCell id="lLSh_5JbdZohcwKLrEKR-123" value="" style="endArrow=classic;html=1;rounded=0;entryX=0;entryY=1;entryDx=0;entryDy=-5;entryPerimeter=0;" edge="1" parent="1" target="lLSh_5JbdZohcwKLrEKR-128">
          <mxGeometry width="50" height="50" relative="1" as="geometry">
            <mxPoint x="270" y="1000" as="sourcePoint" />
            <mxPoint x="440" y="1000" as="targetPoint" />
          </mxGeometry>
        </mxCell>
        <mxCell id="lLSh_5JbdZohcwKLrEKR-124" value="schließeÖberfläche" style="edgeLabel;html=1;align=center;verticalAlign=middle;resizable=0;points=[];" vertex="1" connectable="0" parent="lLSh_5JbdZohcwKLrEKR-123">
          <mxGeometry x="0.3667" y="-4" relative="1" as="geometry">
            <mxPoint x="-33" as="offset" />
          </mxGeometry>
        </mxCell>
        <mxCell id="lLSh_5JbdZohcwKLrEKR-126" value="" style="html=1;verticalAlign=bottom;endArrow=open;dashed=1;endSize=8;curved=0;rounded=0;" edge="1" parent="1">
          <mxGeometry relative="1" as="geometry">
            <mxPoint x="450" y="1040" as="sourcePoint" />
            <mxPoint x="270" y="1040" as="targetPoint" />
          </mxGeometry>
        </mxCell>
        <mxCell id="lLSh_5JbdZohcwKLrEKR-127" value="" style="html=1;verticalAlign=bottom;endArrow=open;dashed=1;endSize=8;curved=0;rounded=0;" edge="1" parent="1" target="lLSh_5JbdZohcwKLrEKR-138">
          <mxGeometry relative="1" as="geometry">
            <mxPoint x="270" y="1060" as="sourcePoint" />
            <mxPoint x="100" y="1060" as="targetPoint" />
          </mxGeometry>
        </mxCell>
        <mxCell id="lLSh_5JbdZohcwKLrEKR-129" value="" style="endArrow=none;dashed=1;html=1;dashPattern=1 3;strokeWidth=2;rounded=0;entryX=0.5;entryY=1;entryDx=0;entryDy=0;" edge="1" parent="1" target="lLSh_5JbdZohcwKLrEKR-128">
          <mxGeometry width="50" height="50" relative="1" as="geometry">
            <mxPoint x="450" y="1120" as="sourcePoint" />
            <mxPoint x="450" y="100" as="targetPoint" />
          </mxGeometry>
        </mxCell>
        <mxCell id="lLSh_5JbdZohcwKLrEKR-128" value="" style="html=1;points=[[0,0,0,0,5],[0,1,0,0,-5],[1,0,0,0,5],[1,1,0,0,-5]];perimeter=orthogonalPerimeter;outlineConnect=0;targetShapes=umlLifeline;portConstraint=eastwest;newEdgeStyle={&quot;curved&quot;:0,&quot;rounded&quot;:0};" vertex="1" parent="1">
          <mxGeometry x="445" y="160" width="10" height="850" as="geometry" />
        </mxCell>
        <mxCell id="lLSh_5JbdZohcwKLrEKR-131" value="" style="endArrow=none;dashed=1;html=1;dashPattern=1 3;strokeWidth=2;rounded=0;entryX=0.5;entryY=1;entryDx=0;entryDy=0;" edge="1" parent="1" target="lLSh_5JbdZohcwKLrEKR-130">
          <mxGeometry width="50" height="50" relative="1" as="geometry">
            <mxPoint x="720" y="1120" as="sourcePoint" />
            <mxPoint x="720" y="99" as="targetPoint" />
          </mxGeometry>
        </mxCell>
        <mxCell id="lLSh_5JbdZohcwKLrEKR-130" value="" style="html=1;points=[[0,0,0,0,5],[0,1,0,0,-5],[1,0,0,0,5],[1,1,0,0,-5]];perimeter=orthogonalPerimeter;outlineConnect=0;targetShapes=umlLifeline;portConstraint=eastwest;newEdgeStyle={&quot;curved&quot;:0,&quot;rounded&quot;:0};" vertex="1" parent="1">
          <mxGeometry x="715" y="110" width="10" height="990" as="geometry" />
        </mxCell>
        <mxCell id="lLSh_5JbdZohcwKLrEKR-81" value="preisAnzeigen()" style="html=1;verticalAlign=bottom;endArrow=open;dashed=1;endSize=8;curved=0;rounded=0;" edge="1" parent="1" target="lLSh_5JbdZohcwKLrEKR-128">
          <mxGeometry x="-0.2444" relative="1" as="geometry">
            <mxPoint x="900" y="790" as="sourcePoint" />
            <mxPoint x="460" y="790" as="targetPoint" />
            <mxPoint as="offset" />
          </mxGeometry>
        </mxCell>
        <mxCell id="lLSh_5JbdZohcwKLrEKR-90" value="" style="endArrow=open;endFill=1;endSize=12;html=1;rounded=0;" edge="1" parent="1">
          <mxGeometry width="160" relative="1" as="geometry">
            <mxPoint x="450" y="910" as="sourcePoint" />
            <mxPoint x="1080" y="910" as="targetPoint" />
          </mxGeometry>
        </mxCell>
        <mxCell id="lLSh_5JbdZohcwKLrEKR-96" value="übermitteltBestellVorgangsDaten()" style="edgeLabel;html=1;align=center;verticalAlign=middle;resizable=0;points=[];" vertex="1" connectable="0" parent="lLSh_5JbdZohcwKLrEKR-90">
          <mxGeometry x="-0.1048" y="1" relative="1" as="geometry">
            <mxPoint x="18" as="offset" />
          </mxGeometry>
        </mxCell>
        <mxCell id="lLSh_5JbdZohcwKLrEKR-43" value="" style="endArrow=classic;html=1;rounded=0;" edge="1" parent="1">
          <mxGeometry width="50" height="50" relative="1" as="geometry">
            <mxPoint x="650" y="310" as="sourcePoint" />
            <mxPoint x="720" y="310" as="targetPoint" />
          </mxGeometry>
        </mxCell>
        <mxCell id="lLSh_5JbdZohcwKLrEKR-44" value="suche&lt;div&gt;Vorführung()&lt;/div&gt;" style="edgeLabel;html=1;align=center;verticalAlign=middle;resizable=0;points=[];" vertex="1" connectable="0" parent="lLSh_5JbdZohcwKLrEKR-43">
          <mxGeometry x="-0.2296" y="-3" relative="1" as="geometry">
            <mxPoint x="3" y="-3" as="offset" />
          </mxGeometry>
        </mxCell>
        <mxCell id="lLSh_5JbdZohcwKLrEKR-47" value="vorführug&lt;div&gt;Ausgewählt()&lt;/div&gt;" style="html=1;verticalAlign=bottom;endArrow=open;dashed=1;endSize=8;curved=0;rounded=0;" edge="1" parent="1">
          <mxGeometry x="-0.0769" y="10" relative="1" as="geometry">
            <mxPoint x="720" y="360" as="sourcePoint" />
            <mxPoint x="650" y="359.5" as="targetPoint" />
            <mxPoint as="offset" />
          </mxGeometry>
        </mxCell>
        <mxCell id="lLSh_5JbdZohcwKLrEKR-135" value="" style="endArrow=none;dashed=1;html=1;dashPattern=1 3;strokeWidth=2;rounded=0;entryX=0.5;entryY=1;entryDx=0;entryDy=0;" edge="1" parent="1" target="lLSh_5JbdZohcwKLrEKR-134">
          <mxGeometry width="50" height="50" relative="1" as="geometry">
            <mxPoint x="900" y="1120" as="sourcePoint" />
            <mxPoint x="900" y="100" as="targetPoint" />
          </mxGeometry>
        </mxCell>
        <mxCell id="lLSh_5JbdZohcwKLrEKR-134" value="" style="html=1;points=[[0,0,0,0,5],[0,1,0,0,-5],[1,0,0,0,5],[1,1,0,0,-5]];perimeter=orthogonalPerimeter;outlineConnect=0;targetShapes=umlLifeline;portConstraint=eastwest;newEdgeStyle={&quot;curved&quot;:0,&quot;rounded&quot;:0};" vertex="1" parent="1">
          <mxGeometry x="895" y="710" width="10" height="80" as="geometry" />
        </mxCell>
        <mxCell id="lLSh_5JbdZohcwKLrEKR-79" value="" style="endArrow=classic;html=1;rounded=0;" edge="1" parent="1">
          <mxGeometry width="50" height="50" relative="1" as="geometry">
            <mxPoint x="900" y="730" as="sourcePoint" />
            <mxPoint x="900" y="770" as="targetPoint" />
            <Array as="points">
              <mxPoint x="960" y="730" />
              <mxPoint x="960" y="770" />
            </Array>
          </mxGeometry>
        </mxCell>
        <mxCell id="lLSh_5JbdZohcwKLrEKR-80" value="berechnetPreis()" style="edgeLabel;html=1;align=center;verticalAlign=middle;resizable=0;points=[];" vertex="1" connectable="0" parent="lLSh_5JbdZohcwKLrEKR-79">
          <mxGeometry x="0.0125" y="-4" relative="1" as="geometry">
            <mxPoint as="offset" />
          </mxGeometry>
        </mxCell>
        <mxCell id="lLSh_5JbdZohcwKLrEKR-76" value="" style="endArrow=classic;html=1;rounded=0;" edge="1" parent="1">
          <mxGeometry width="50" height="50" relative="1" as="geometry">
            <mxPoint x="450" y="710" as="sourcePoint" />
            <mxPoint x="900" y="710" as="targetPoint" />
          </mxGeometry>
        </mxCell>
        <mxCell id="lLSh_5JbdZohcwKLrEKR-100" value="übermitteltBestellVorgangsDaten()" style="edgeLabel;html=1;align=center;verticalAlign=middle;resizable=0;points=[];" vertex="1" connectable="0" parent="lLSh_5JbdZohcwKLrEKR-76">
          <mxGeometry x="0.3778" y="4" relative="1" as="geometry">
            <mxPoint x="10" y="-6" as="offset" />
          </mxGeometry>
        </mxCell>
        <mxCell id="lLSh_5JbdZohcwKLrEKR-137" value="" style="endArrow=none;dashed=1;html=1;dashPattern=1 3;strokeWidth=2;rounded=0;" edge="1" parent="1" target="lLSh_5JbdZohcwKLrEKR-136">
          <mxGeometry width="50" height="50" relative="1" as="geometry">
            <mxPoint x="1080" y="1120" as="sourcePoint" />
            <mxPoint x="1080" y="100" as="targetPoint" />
          </mxGeometry>
        </mxCell>
        <mxCell id="lLSh_5JbdZohcwKLrEKR-136" value="" style="html=1;points=[[0,0,0,0,5],[0,1,0,0,-5],[1,0,0,0,5],[1,1,0,0,-5]];perimeter=orthogonalPerimeter;outlineConnect=0;targetShapes=umlLifeline;portConstraint=eastwest;newEdgeStyle={&quot;curved&quot;:0,&quot;rounded&quot;:0};" vertex="1" parent="1">
          <mxGeometry x="1075" y="110" width="10" height="990" as="geometry" />
        </mxCell>
        <mxCell id="lLSh_5JbdZohcwKLrEKR-103" value="" style="endArrow=classic;html=1;rounded=0;" edge="1" parent="1">
          <mxGeometry width="50" height="50" relative="1" as="geometry">
            <mxPoint x="1080" y="1030" as="sourcePoint" />
            <mxPoint x="1080" y="1080" as="targetPoint" />
            <Array as="points">
              <mxPoint x="1120" y="1030" />
              <mxPoint x="1120" y="1080" />
              <mxPoint x="1100" y="1080" />
            </Array>
          </mxGeometry>
        </mxCell>
        <mxCell id="lLSh_5JbdZohcwKLrEKR-104" value="aktualisiere&lt;div&gt;Statistik()&lt;/div&gt;" style="edgeLabel;html=1;align=center;verticalAlign=middle;resizable=0;points=[];" vertex="1" connectable="0" parent="lLSh_5JbdZohcwKLrEKR-103">
          <mxGeometry x="-0.2" relative="1" as="geometry">
            <mxPoint x="-20" y="8" as="offset" />
          </mxGeometry>
        </mxCell>
        <mxCell id="lLSh_5JbdZohcwKLrEKR-97" value="" style="endArrow=classic;html=1;rounded=0;" edge="1" parent="1">
          <mxGeometry width="50" height="50" relative="1" as="geometry">
            <mxPoint x="1080" y="930" as="sourcePoint" />
            <mxPoint x="1080" y="990" as="targetPoint" />
            <Array as="points">
              <mxPoint x="1100" y="930" />
              <mxPoint x="1120" y="930" />
              <mxPoint x="1120" y="990" />
            </Array>
          </mxGeometry>
        </mxCell>
        <mxCell id="lLSh_5JbdZohcwKLrEKR-98" value="speichere&lt;div&gt;Bestellvorgang()&lt;/div&gt;&lt;div&gt;&lt;br&gt;&lt;/div&gt;" style="edgeLabel;html=1;align=center;verticalAlign=middle;resizable=0;points=[];" vertex="1" connectable="0" parent="lLSh_5JbdZohcwKLrEKR-97">
          <mxGeometry y="-1" relative="1" as="geometry">
            <mxPoint x="-19" as="offset" />
          </mxGeometry>
        </mxCell>
        <mxCell id="lLSh_5JbdZohcwKLrEKR-139" value="" style="endArrow=none;dashed=1;html=1;dashPattern=1 3;strokeWidth=2;rounded=0;entryX=0.5;entryY=1;entryDx=0;entryDy=0;" edge="1" parent="1" target="lLSh_5JbdZohcwKLrEKR-138">
          <mxGeometry width="50" height="50" relative="1" as="geometry">
            <mxPoint x="90" y="1120" as="sourcePoint" />
            <mxPoint x="90" y="100" as="targetPoint" />
          </mxGeometry>
        </mxCell>
        <mxCell id="lLSh_5JbdZohcwKLrEKR-138" value="" style="html=1;points=[[0,0,0,0,5],[0,1,0,0,-5],[1,0,0,0,5],[1,1,0,0,-5]];perimeter=orthogonalPerimeter;outlineConnect=0;targetShapes=umlLifeline;portConstraint=eastwest;newEdgeStyle={&quot;curved&quot;:0,&quot;rounded&quot;:0};" vertex="1" parent="1">
          <mxGeometry x="85" y="130" width="10" height="940" as="geometry" />
        </mxCell>
        <mxCell id="lLSh_5JbdZohcwKLrEKR-141" value="" style="endArrow=none;dashed=1;html=1;dashPattern=1 3;strokeWidth=2;rounded=0;entryX=0.463;entryY=0.967;entryDx=0;entryDy=0;entryPerimeter=0;" edge="1" parent="1" target="lLSh_5JbdZohcwKLrEKR-140">
          <mxGeometry width="50" height="50" relative="1" as="geometry">
            <mxPoint x="270" y="1120" as="sourcePoint" />
            <mxPoint x="264" y="98" as="targetPoint" />
          </mxGeometry>
        </mxCell>
        <mxCell id="lLSh_5JbdZohcwKLrEKR-140" value="" style="html=1;points=[[0,0,0,0,5],[0,1,0,0,-5],[1,0,0,0,5],[1,1,0,0,-5]];perimeter=orthogonalPerimeter;outlineConnect=0;targetShapes=umlLifeline;portConstraint=eastwest;newEdgeStyle={&quot;curved&quot;:0,&quot;rounded&quot;:0};" vertex="1" parent="1">
          <mxGeometry x="260" y="130" width="10" height="940" as="geometry" />
        </mxCell>
      </root>
    </mxGraphModel>
  </diagram>
</mxfile>
